# xmcd CD database file
#
# Track frame offsets:
#	150
#	21460
#	47562
#	86967
#	110307
#	126342
#	161570
#	188612
#	215075
#
# Disc length: 3221 seconds
#
# Revision: 0
# Processed by: cddbd v1.5.1PL0 Copyright (c) Steve Scherf et al.
# Submitted via: CDex 1.51
#
DISCID=7d0c9309
DTITLE=Paul Tillotson - Tasty Morsels
DYEAR=1997
DGENRE=Jazz
TTITLE0=Tebadadeda
TTITLE1=Centipede
TTITLE2=Big Valley
TTITLE3=Simple Pleasures
TTITLE4=Times Square Dance
TTITLE5=Jack
TTITLE6=Tulips
TTITLE7=Tidbits
TTITLE8=Sage
EXTD=YEAR: 1997
EXTT0=
EXTT1=
EXTT2=
EXTT3=
EXTT4=
EXTT5=
EXTT6=
EXTT7=
EXTT8=
PLAYORDER=
